<svg width="97" height="96" viewBox="0 0 97 96" fill="none" xmlns="http://www.w3.org/2000/svg">
<g clip-path="url(#clip0_296_679)">
<path d="M29.8911 25.6978C25.4775 29.3056 22.2532 34.1242 20.626 39.5443C18.9989 44.9644 19.0418 50.7425 20.7496 56.1479C22.4573 61.5534 25.753 66.3435 30.22 69.9124C34.6871 73.4813 40.1247 75.6687 45.8453 76.1981C51.566 76.7275 57.3127 75.5751 62.3588 72.8865C67.4049 70.198 71.5237 66.0941 74.1943 61.0938C76.865 56.0935 77.9676 50.4214 77.3627 44.7947C76.7578 39.1681 74.4726 33.8397 70.796 29.4832C65.8609 23.6487 58.7826 19.9735 51.1141 19.2639C43.4455 18.5542 35.813 20.8681 29.8911 25.6978ZM62.9386 64.8563C59.5058 67.6623 55.3021 69.4006 50.8591 69.8513C46.4161 70.3019 41.9334 69.4448 37.9778 67.3882C34.0223 65.3316 30.7715 62.1679 28.6365 58.2972C26.5016 54.4265 25.5784 50.0227 25.9838 45.6426C26.3891 41.2625 28.1048 37.1029 30.9137 33.6897C33.7227 30.2765 37.4989 27.7631 41.7647 26.4673C46.0305 25.1716 50.5944 25.1516 54.8792 26.4099C59.164 27.6683 62.9774 30.1485 65.8369 33.5368C69.6653 38.083 71.5102 43.9338 70.9669 49.8054C70.4235 55.677 67.5363 61.0898 62.9386 64.8563ZM57.0383 37.8029C57.4614 37.8414 57.8728 37.9616 58.249 38.1568C58.6252 38.352 58.9588 38.6183 59.2306 38.9404C59.5025 39.2625 59.7072 39.6341 59.8331 40.0339C59.9591 40.4337 60.0037 40.8538 59.9644 41.2701L58.8603 53.2013C58.8218 53.6175 58.7003 54.0219 58.503 54.3914C58.3056 54.761 58.0361 55.0884 57.71 55.355C57.3838 55.6216 57.0073 55.8222 56.6019 55.9454C56.1966 56.0685 55.7704 56.1117 55.3476 56.0726C54.9248 56.0335 54.5138 55.9128 54.1379 55.7174C53.7621 55.5219 53.4288 55.2557 53.1571 54.9337C52.8854 54.6117 52.6806 54.2404 52.5544 53.8409C52.4282 53.4415 52.383 53.0216 52.4215 52.6055L52.8187 48.3139L42.2807 56.9279C41.6231 57.4654 40.7748 57.7231 39.9225 57.6442C39.0701 57.5653 38.2835 57.1564 37.7357 56.5073C37.188 55.8582 36.9238 55.0221 37.0015 54.1831C37.0791 53.344 37.4922 52.5706 38.1498 52.0331L48.6877 43.4191L44.3263 43.0174C43.9035 42.9783 43.4925 42.8576 43.1166 42.6622C42.7407 42.4667 42.4075 42.2005 42.1357 41.8785C41.864 41.5565 41.6592 41.1852 41.533 40.7857C41.4068 40.3863 41.3617 39.9664 41.4002 39.5503C41.4387 39.1341 41.5601 38.7297 41.7575 38.3601C41.9549 37.9906 42.2243 37.6632 42.5505 37.3965C42.8767 37.1299 43.2532 36.9293 43.6585 36.8062C44.0638 36.6831 44.4901 36.6398 44.9128 36.679L57.0383 37.8029Z" fill="#81013A"/>
</g>
<defs>
<clipPath id="clip0_296_679">
<rect width="68.3198" height="68.3198" fill="white" transform="matrix(0.774247 -0.632884 0.644957 0.764218 0 43.2385)"/>
</clipPath>
</defs>
</svg>
