<svg width="70" height="69" viewBox="0 0 70 69" fill="none" xmlns="http://www.w3.org/2000/svg">
<g clip-path="url(#clip0_6064_753)">
<path d="M14.3781 13.5562C10.3472 17.5871 7.58903 22.7357 6.45237 28.351C5.3157 33.9663 5.85159 39.796 7.99227 45.103C10.133 50.41 13.7823 54.9559 18.4788 58.1658C23.1753 61.3757 28.708 63.1055 34.3773 63.1364C40.0466 63.1673 45.5978 61.4979 50.329 58.3394C55.0602 55.1809 58.7589 50.6751 60.9573 45.3917C63.1557 40.1084 63.7551 34.2848 62.6797 28.6575C61.6043 23.0302 58.9024 17.8518 54.9157 13.7772C49.5656 8.32121 42.2928 5.23381 34.6931 5.19239C27.0934 5.15096 19.7874 8.15889 14.3781 13.5562ZM50.213 50.1811C47.0779 53.3162 43.0936 55.4412 38.7642 56.2873C34.4347 57.1334 29.9545 56.6626 25.89 54.9345C21.8254 53.2064 18.3593 50.2985 15.9297 46.5786C13.5001 42.8588 12.2163 38.494 12.2406 34.0362C12.2649 29.5784 13.5963 25.2279 16.0662 21.5347C18.5362 17.8416 22.0339 14.9717 26.117 13.2879C30.2001 11.6042 34.6852 11.1823 39.0052 12.0756C43.3251 12.9688 47.286 15.1371 50.3867 18.3062C54.5389 22.559 56.8525 28.3034 56.8199 34.2792C56.7873 40.2549 54.4112 45.9738 50.213 50.1811ZM42.1011 23.3877C42.5203 23.3893 42.9351 23.4745 43.3216 23.6384C43.7081 23.8024 44.0588 24.0418 44.3536 24.3431C44.6484 24.6444 44.8814 25.0015 45.0394 25.3941C45.1973 25.7866 45.277 26.2068 45.274 26.6306L45.2078 38.7734C45.2055 39.1969 45.1207 39.6159 44.9582 40.0064C44.7958 40.3968 44.5588 40.7511 44.2609 41.049C43.963 41.3469 43.61 41.5826 43.222 41.7426C42.8341 41.9025 42.4187 41.9837 41.9998 41.9814C41.5808 41.9791 41.1664 41.8935 40.7802 41.7292C40.394 41.565 40.0435 41.3255 39.7489 41.0244C39.4543 40.7233 39.2212 40.3664 39.063 39.9742C38.9048 39.582 38.8246 39.1622 38.8269 38.7386L38.8507 34.371L29.2266 43.9951C28.626 44.5957 27.814 44.9305 26.9693 44.9259C26.1246 44.9213 25.3164 44.5777 24.7224 43.9706C24.1284 43.3635 23.7973 42.5427 23.8019 41.6887C23.8066 40.8347 24.1466 40.0176 24.7472 39.417L34.3713 29.7929L30.0492 29.7712C29.6302 29.7689 29.2158 29.6832 28.8296 29.519C28.4434 29.3548 28.093 29.1153 27.7983 28.8142C27.5037 28.5131 27.2706 28.1562 27.1124 27.764C26.9542 27.3718 26.874 26.952 26.8763 26.5284C26.8786 26.1048 26.9634 25.6858 27.1259 25.2954C27.2884 24.9049 27.5253 24.5506 27.8232 24.2528C28.1211 23.9549 28.4741 23.7192 28.8621 23.5592C29.25 23.3992 29.6654 23.3181 30.0843 23.3203L42.1011 23.3877Z" fill="#81AB3A"/>
</g>
<defs>
<clipPath id="clip0_6064_753">
<rect width="68.3198" height="68.3198" fill="white" transform="matrix(1 0 -0.0109012 0.999941 0.744873 0)"/>
</clipPath>
</defs>
</svg>
