<svg width="48" height="48" viewBox="0 0 48 48" fill="none" xmlns="http://www.w3.org/2000/svg">
<path d="M24 3.75C19.9949 3.75 16.0798 4.93764 12.7497 7.16274C9.41962 9.38784 6.82412 12.5505 5.29145 16.2507C3.75877 19.9509 3.35776 24.0225 4.13911 27.9506C4.92046 31.8787 6.84908 35.4869 9.6811 38.3189C12.5131 41.1509 16.1213 43.0796 20.0494 43.8609C23.9775 44.6423 28.0491 44.2412 31.7493 42.7086C35.4496 41.1759 38.6122 38.5804 40.8373 35.2503C43.0624 31.9202 44.25 28.0051 44.25 24C44.2441 18.6312 42.1087 13.484 38.3123 9.68767C34.516 5.89134 29.3688 3.75596 24 3.75ZM24 39.75C20.885 39.75 17.8399 38.8263 15.2498 37.0956C12.6597 35.365 10.641 32.9052 9.44891 30.0273C8.25683 27.1493 7.94492 23.9825 8.55264 20.9273C9.16036 17.8721 10.6604 15.0657 12.8631 12.8631C15.0658 10.6604 17.8721 9.16035 20.9273 8.55263C23.9825 7.94491 27.1493 8.25682 30.0273 9.4489C32.9052 10.641 35.365 12.6597 37.0957 15.2498C38.8263 17.8398 39.75 20.8849 39.75 24C39.7455 28.1758 38.0847 32.1793 35.132 35.132C32.1793 38.0847 28.1758 39.7455 24 39.75ZM33.0919 22.4081C33.3016 22.6172 33.4681 22.8655 33.5816 23.139C33.6952 23.4125 33.7537 23.7057 33.7537 24.0019C33.7537 24.298 33.6952 24.5912 33.5816 24.8647C33.4681 25.1382 33.3016 25.3866 33.0919 25.5956L27.0919 31.5956C26.8826 31.8049 26.6341 31.9709 26.3607 32.0842C26.0872 32.1975 25.7941 32.2558 25.4981 32.2558C25.2021 32.2558 24.9091 32.1975 24.6356 32.0842C24.3621 31.9709 24.1137 31.8049 23.9044 31.5956C23.6951 31.3863 23.5291 31.1379 23.4158 30.8644C23.3025 30.591 23.2442 30.2979 23.2442 30.0019C23.2442 29.7059 23.3025 29.4128 23.4158 29.1393C23.5291 28.8659 23.6951 28.6174 23.9044 28.4081L26.0625 26.25H16.5C15.9033 26.25 15.331 26.0129 14.909 25.591C14.4871 25.169 14.25 24.5967 14.25 24C14.25 23.4033 14.4871 22.831 14.909 22.409C15.331 21.9871 15.9033 21.75 16.5 21.75H26.0625L23.9025 19.5919C23.6932 19.3826 23.5272 19.1341 23.4139 18.8607C23.3007 18.5872 23.2424 18.2941 23.2424 17.9981C23.2424 17.7021 23.3007 17.409 23.4139 17.1356C23.5272 16.8621 23.6932 16.6137 23.9025 16.4044C24.1118 16.1951 24.3603 16.0291 24.6337 15.9158C24.9072 15.8025 25.2003 15.7442 25.4963 15.7442C25.7922 15.7442 26.0853 15.8025 26.3588 15.9158C26.6322 16.0291 26.8807 16.1951 27.09 16.4044L33.0919 22.4081Z" fill="black"/>
</svg>
