<svg width="48" height="48" viewBox="0 0 48 48" fill="none" xmlns="http://www.w3.org/2000/svg">
<path d="M44.1694 36.3244L37.9463 6.73691C37.8455 6.25319 37.6501 5.79415 37.3714 5.38617C37.0927 4.97819 36.7361 4.62932 36.3221 4.3596C35.9081 4.08988 35.4449 3.90463 34.9591 3.8145C34.4733 3.72437 33.9744 3.73114 33.4912 3.83441L24.7144 5.72066C23.9074 5.89562 23.1818 6.33433 22.6519 6.96754C22.312 6.44056 21.8454 6.00723 21.2948 5.70718C20.7442 5.40714 20.1271 5.24996 19.5 5.25004H10.5C9.50544 5.25004 8.55161 5.64513 7.84835 6.34839C7.14509 7.05165 6.75 8.00548 6.75 9.00004V39C6.75 39.9946 7.14509 40.9484 7.84835 41.6517C8.55161 42.3549 9.50544 42.75 10.5 42.75H19.5C20.4946 42.75 21.4484 42.3549 22.1517 41.6517C22.8549 40.9484 23.25 39.9946 23.25 39V16.9219L28.0537 39.7632C28.2288 40.6056 28.6883 41.3621 29.355 41.906C30.0218 42.4498 30.8552 42.7478 31.7156 42.75C31.9822 42.7498 32.2481 42.7215 32.5088 42.6657L41.2856 40.7794C42.2566 40.5672 43.1045 39.9799 43.6446 39.1455C44.1847 38.3112 44.3733 37.2972 44.1694 36.3244ZM27.7856 16.6219L35.0981 15.0507L35.5725 17.3007L28.26 18.8719L27.7856 16.6219ZM29.1844 23.2782L36.4969 21.7069L38.2144 29.8782L30.9019 31.4494L29.1844 23.2782ZM33.6956 8.39254L34.17 10.6425L26.8575 12.2138L26.3831 9.96379L33.6956 8.39254ZM11.25 16.5H18.75V31.5H11.25V16.5ZM18.75 9.75004V12H11.25V9.75004H18.75ZM11.25 38.25V36H18.75V38.25H11.25ZM32.3044 38.1075L31.83 35.8575L39.1425 34.2863L39.6169 36.5363L32.3044 38.1075Z" fill="black"/>
</svg>
