<svg width="48" height="48" viewBox="0 0 48 48" fill="none" xmlns="http://www.w3.org/2000/svg">
<path d="M34.5 5.25H13.5C12.5054 5.25 11.5516 5.64509 10.8483 6.34835C10.1451 7.05161 9.75 8.00544 9.75 9V42C9.74987 42.4017 9.85727 42.7961 10.0611 43.1423C10.2649 43.4884 10.5576 43.7737 10.9089 43.9685C11.2603 44.1633 11.6573 44.2605 12.0589 44.25C12.4604 44.2395 12.8519 44.1217 13.1925 43.9087L23.9981 37.1587L34.8075 43.9087C35.1481 44.1217 35.5396 44.2395 35.9411 44.25C36.3427 44.2605 36.7397 44.1633 37.0911 43.9685C37.4424 43.7737 37.7351 43.4884 37.9389 43.1423C38.1427 42.7961 38.2501 42.4017 38.25 42V9C38.25 8.00544 37.8549 7.05161 37.1516 6.34835C36.4484 5.64509 35.4946 5.25 34.5 5.25ZM33.75 37.9406L25.1906 32.5913C24.833 32.3678 24.4198 32.2492 23.9981 32.2492C23.5764 32.2492 23.1632 32.3678 22.8056 32.5913L14.25 37.9406V9.75H33.75V37.9406Z" fill="black"/>
</svg>
