<svg width="48" height="48" viewBox="0 0 48 48" fill="none" xmlns="http://www.w3.org/2000/svg">
<path d="M43.5 8.25H30C28.8755 8.24964 27.7628 8.47991 26.7308 8.92657C25.6988 9.37323 24.7694 10.0268 24 10.8469C23.2306 10.0268 22.3012 9.37323 21.2692 8.92657C20.2372 8.47991 19.1245 8.24964 18 8.25H4.5C3.90326 8.25 3.33097 8.48705 2.90901 8.90901C2.48705 9.33097 2.25 9.90326 2.25 10.5V37.5C2.25 38.0967 2.48705 38.669 2.90901 39.091C3.33097 39.5129 3.90326 39.75 4.5 39.75H18C18.9946 39.75 19.9484 40.1451 20.6516 40.8484C21.3549 41.5516 21.75 42.5054 21.75 43.5C21.75 44.0967 21.9871 44.669 22.409 45.091C22.831 45.5129 23.4033 45.75 24 45.75C24.5967 45.75 25.169 45.5129 25.591 45.091C26.0129 44.669 26.25 44.0967 26.25 43.5C26.25 42.5054 26.6451 41.5516 27.3484 40.8484C28.0516 40.1451 29.0054 39.75 30 39.75H43.5C44.0967 39.75 44.669 39.5129 45.091 39.091C45.5129 38.669 45.75 38.0967 45.75 37.5V10.5C45.75 9.90326 45.5129 9.33097 45.091 8.90901C44.669 8.48705 44.0967 8.25 43.5 8.25ZM18 35.25H6.75V12.75H18C18.9946 12.75 19.9484 13.1451 20.6516 13.8484C21.3549 14.5516 21.75 15.5054 21.75 16.5V36.1519C20.5893 35.5578 19.3039 35.2486 18 35.25ZM41.25 35.25H30C28.6957 35.2492 27.4101 35.5597 26.25 36.1556V16.5C26.25 15.5054 26.6451 14.5516 27.3484 13.8484C28.0516 13.1451 29.0054 12.75 30 12.75H41.25V35.25Z" fill="black"/>
</svg>
