<svg width="48" height="48" viewBox="0 0 48 48" fill="none" xmlns="http://www.w3.org/2000/svg">
<path d="M40.5919 19.5918L25.5919 34.5918C25.3828 34.8016 25.1344 34.968 24.8609 35.0816C24.5875 35.1952 24.2942 35.2536 23.9981 35.2536C23.702 35.2536 23.4088 35.1952 23.1353 35.0816C22.8618 34.968 22.6134 34.8016 22.4044 34.5918L7.40435 19.5918C6.98167 19.1691 6.7442 18.5959 6.7442 17.9981C6.7442 17.4003 6.98167 16.827 7.40435 16.4043C7.82704 15.9816 8.40033 15.7442 8.9981 15.7442C9.59588 15.7442 10.1692 15.9816 10.5919 16.4043L24 29.8125L37.4081 16.4025C37.8308 15.9798 38.4041 15.7423 39.0019 15.7423C39.5996 15.7423 40.1729 15.9798 40.5956 16.4025C41.0183 16.8252 41.2558 17.3984 41.2558 17.9962C41.2558 18.594 41.0183 19.1673 40.5956 19.59L40.5919 19.5918Z" fill="black"/>
</svg>
