<svg width="48" height="48" viewBox="0 0 48 48" fill="none" xmlns="http://www.w3.org/2000/svg">
<path d="M33 3H15C13.8065 3 12.6619 3.47411 11.818 4.31802C10.9741 5.16193 10.5 6.30653 10.5 7.5V40.5C10.5 41.6935 10.9741 42.8381 11.818 43.682C12.6619 44.5259 13.8065 45 15 45H33C34.1935 45 35.3381 44.5259 36.182 43.682C37.0259 42.8381 37.5 41.6935 37.5 40.5V7.5C37.5 6.30653 37.0259 5.16193 36.182 4.31802C35.3381 3.47411 34.1935 3 33 3ZM24 13.5C23.555 13.5 23.12 13.368 22.75 13.1208C22.38 12.8736 22.0916 12.5222 21.9213 12.111C21.751 11.6999 21.7064 11.2475 21.7932 10.811C21.88 10.3746 22.0943 9.97368 22.409 9.65901C22.7237 9.34434 23.1246 9.13005 23.561 9.04323C23.9975 8.95642 24.4499 9.00097 24.861 9.17127C25.2722 9.34157 25.6236 9.62996 25.8708 9.99997C26.118 10.37 26.25 10.805 26.25 11.25C26.25 11.8467 26.0129 12.419 25.591 12.841C25.169 13.2629 24.5967 13.5 24 13.5Z" fill="black"/>
</svg>
