<svg width="48" height="48" viewBox="0 0 48 48" fill="none" xmlns="http://www.w3.org/2000/svg">
<path d="M41.25 20.9999V38.9999C41.25 39.9945 40.8549 40.9483 40.1516 41.6516C39.4484 42.3549 38.4946 42.7499 37.5 42.7499H10.5C9.50544 42.7499 8.55161 42.3549 7.84835 41.6516C7.14509 40.9483 6.75 39.9945 6.75 38.9999V20.9999C6.75 20.0054 7.14509 19.0516 7.84835 18.3483C8.55161 17.645 9.50544 17.2499 10.5 17.2499H14.25C14.8467 17.2499 15.419 17.487 15.841 17.909C16.2629 18.3309 16.5 18.9032 16.5 19.4999C16.5 20.0967 16.2629 20.669 15.841 21.0909C15.419 21.5129 14.8467 21.7499 14.25 21.7499H11.25V38.2499H36.75V21.7499H33.75C33.1533 21.7499 32.581 21.5129 32.159 21.0909C31.7371 20.669 31.5 20.0967 31.5 19.4999C31.5 18.9032 31.7371 18.3309 32.159 17.909C32.581 17.487 33.1533 17.2499 33.75 17.2499H37.5C38.4946 17.2499 39.4484 17.645 40.1516 18.3483C40.8549 19.0516 41.25 20.0054 41.25 20.9999ZM18.0919 13.5918L21.75 9.93744V25.4999C21.75 26.0967 21.9871 26.669 22.409 27.0909C22.831 27.5129 23.4033 27.7499 24 27.7499C24.5967 27.7499 25.169 27.5129 25.591 27.0909C26.0129 26.669 26.25 26.0967 26.25 25.4999V9.93744L29.9081 13.5974C30.1174 13.8067 30.3659 13.9728 30.6393 14.086C30.9128 14.1993 31.2059 14.2576 31.5019 14.2576C31.7979 14.2576 32.091 14.1993 32.3644 14.086C32.6379 13.9728 32.8863 13.8067 33.0956 13.5974C33.3049 13.3881 33.4709 13.1397 33.5842 12.8662C33.6975 12.5928 33.7558 12.2997 33.7558 12.0037C33.7558 11.7077 33.6975 11.4146 33.5842 11.1412C33.4709 10.8677 33.3049 10.6192 33.0956 10.4099L25.5956 2.90994C25.3866 2.70018 25.1382 2.53375 24.8647 2.42019C24.5912 2.30663 24.298 2.24817 24.0019 2.24817C23.7057 2.24817 23.4125 2.30663 23.139 2.42019C22.8655 2.53375 22.6172 2.70018 22.4081 2.90994L14.9081 10.4099C14.6988 10.6192 14.5328 10.8677 14.4195 11.1412C14.3063 11.4146 14.248 11.7077 14.248 12.0037C14.248 12.6015 14.4854 13.1748 14.9081 13.5974C15.3308 14.0201 15.9041 14.2576 16.5019 14.2576C17.0996 14.2576 17.6729 14.0201 18.0956 13.5974L18.0919 13.5918Z" fill="black"/>
</svg>
