<svg width="48" height="48" viewBox="0 0 48 48" fill="none" xmlns="http://www.w3.org/2000/svg">
<path d="M47.0625 23.0869C46.9931 22.935 45.3506 19.2881 41.7225 15.66C36.8681 10.8131 30.75 8.25 24 8.25C17.25 8.25 11.1319 10.8131 6.28313 15.66C2.655 19.2881 1.0125 22.935 0.937504 23.0869C0.810478 23.3749 0.744873 23.6862 0.744873 24.0009C0.744873 24.3157 0.810478 24.627 0.937504 24.915C1.00688 25.0688 2.64938 28.7138 6.27938 32.3419C11.1319 37.1888 17.25 39.75 24 39.75C30.75 39.75 36.8681 37.1888 41.715 32.3419C45.345 28.7138 46.9875 25.0688 47.0569 24.915C47.1848 24.6274 47.2514 24.3163 47.2523 24.0015C47.2533 23.6868 47.1886 23.3753 47.0625 23.0869ZM38.4263 29.2744C34.4006 33.2381 29.5481 35.25 24 35.25C18.4519 35.25 13.5994 33.2381 9.57938 29.2725C7.99753 27.7073 6.63683 25.9334 5.535 24C6.63715 22.0674 7.99782 20.2941 9.57938 18.7294C13.6013 14.7619 18.4519 12.75 24 12.75C29.5481 12.75 34.3988 14.7619 38.4206 18.7294C40.0023 20.294 41.363 22.0672 42.465 24C41.363 25.9333 40.0023 27.7072 38.4206 29.2725L38.4263 29.2744ZM24 15.75C22.3683 15.75 20.7733 16.2339 19.4165 17.1404C18.0598 18.0469 17.0024 19.3354 16.378 20.8429C15.7536 22.3504 15.5902 24.0092 15.9085 25.6095C16.2269 27.2098 17.0126 28.6798 18.1664 29.8336C19.3202 30.9874 20.7902 31.7732 22.3905 32.0915C23.9909 32.4098 25.6497 32.2464 27.1571 31.622C28.6646 30.9976 29.9531 29.9402 30.8596 28.5835C31.7661 27.2267 32.25 25.6317 32.25 24C32.2475 21.8127 31.3775 19.7157 29.8309 18.1691C28.2843 16.6225 26.1873 15.7525 24 15.75ZM24 27.75C23.2583 27.75 22.5333 27.5301 21.9166 27.118C21.2999 26.706 20.8193 26.1203 20.5355 25.4351C20.2516 24.7498 20.1774 23.9958 20.3221 23.2684C20.4668 22.541 20.8239 21.8728 21.3484 21.3483C21.8728 20.8239 22.541 20.4667 23.2684 20.3221C23.9958 20.1774 24.7498 20.2516 25.4351 20.5355C26.1203 20.8193 26.706 21.2999 27.118 21.9166C27.5301 22.5333 27.75 23.2583 27.75 24C27.75 24.9946 27.3549 25.9484 26.6517 26.6516C25.9484 27.3549 24.9946 27.75 24 27.75Z" fill="black"/>
</svg>
