<svg width="48" height="48" viewBox="0 0 48 48" fill="none" xmlns="http://www.w3.org/2000/svg">
<path d="M10.665 5.98682C10.4674 5.76409 10.2276 5.58279 9.9594 5.45343C9.69123 5.32407 9.40005 5.24922 9.10273 5.23323C8.80542 5.21723 8.50788 5.26041 8.22738 5.36025C7.94687 5.46009 7.68897 5.61461 7.46863 5.81486C7.24828 6.01511 7.06987 6.2571 6.94374 6.5268C6.8176 6.79651 6.74625 7.08857 6.73382 7.38606C6.72139 7.68354 6.76813 7.98053 6.87133 8.25982C6.97453 8.53911 7.13213 8.79514 7.335 9.01307L10.335 12.3224C3.87563 16.6237 1.0725 22.7962 0.937504 23.0868C0.810478 23.3748 0.744873 23.6861 0.744873 24.0009C0.744873 24.3156 0.810478 24.627 0.937504 24.9149C1.00688 25.0687 2.64938 28.7137 6.27938 32.3418C11.1319 37.1887 17.25 39.7499 24 39.7499C27.2806 39.7681 30.5317 39.1306 33.5625 37.8749L37.3294 42.0187C37.7328 42.452 38.2908 42.7089 38.8823 42.7336C39.4739 42.7584 40.0513 42.5489 40.4895 42.1507C40.9276 41.7525 41.1912 41.1977 41.223 40.6065C41.2548 40.0153 41.0523 39.4353 40.6594 38.9924L10.665 5.98682ZM24 35.2499C18.4519 35.2499 13.5994 33.2381 9.57938 29.2724C7.99811 27.7067 6.63747 25.9329 5.535 23.9999C6.52313 22.2543 9.05813 18.3937 13.41 15.6956L30.3019 34.2787C28.2648 34.9292 26.1384 35.2569 24 35.2499ZM47.0625 24.9149C46.995 25.0668 45.375 28.6649 41.8125 32.2574C41.6085 32.4839 41.3606 32.6665 41.0839 32.7943C40.8072 32.922 40.5074 32.9922 40.2027 33.0006C39.8981 33.009 39.5949 32.9554 39.3116 32.8431C39.0282 32.7307 38.7707 32.562 38.5545 32.3471C38.3384 32.1323 38.1682 31.8757 38.0542 31.593C37.9402 31.3104 37.8848 31.0075 37.8914 30.7028C37.8979 30.3981 37.9664 30.0979 38.0925 29.8204C38.2186 29.543 38.3998 29.294 38.625 29.0887C40.1215 27.5672 41.4124 25.8564 42.465 23.9999C41.3632 22.0665 40.0025 20.2926 38.4206 18.7274C34.3988 14.7618 29.5481 12.7499 24 12.7499C23.3719 12.7499 22.7438 12.7762 22.125 12.8287C21.8268 12.8606 21.5253 12.8327 21.2381 12.7464C20.9509 12.6601 20.6838 12.5173 20.4526 12.3264C20.2214 12.1354 20.0306 11.9001 19.8916 11.6344C19.7526 11.3687 19.6682 11.0779 19.6432 10.779C19.6182 10.4802 19.6532 10.1794 19.7461 9.89427C19.839 9.60915 19.988 9.34549 20.1843 9.11877C20.3806 8.89205 20.6202 8.70686 20.8891 8.57408C21.158 8.4413 21.4507 8.36361 21.75 8.34557C22.4869 8.28182 23.25 8.24994 24 8.24994C30.75 8.24994 36.8681 10.8131 41.7169 15.6599C45.345 19.2881 46.9875 22.9349 47.0569 23.0868C47.1848 23.3744 47.2514 23.6855 47.2523 24.0003C47.2533 24.3151 47.1886 24.6266 47.0625 24.9149Z" fill="black"/>
</svg>
