<svg width="48" height="48" viewBox="0 0 48 48" fill="none" xmlns="http://www.w3.org/2000/svg">
<path d="M26.25 23.25V40.5C26.25 41.0967 26.0129 41.669 25.591 42.091C25.169 42.5129 24.5967 42.75 24 42.75C23.4033 42.75 22.831 42.5129 22.409 42.091C21.9871 41.669 21.75 41.0967 21.75 40.5V23.25C21.75 22.6533 21.9871 22.081 22.409 21.659C22.831 21.2371 23.4033 21 24 21C24.5967 21 25.169 21.2371 25.591 21.659C26.0129 22.081 26.25 22.6533 26.25 23.25ZM37.5 36C36.9033 36 36.331 36.2371 35.909 36.659C35.4871 37.081 35.25 37.6533 35.25 38.25V40.5C35.25 41.0967 35.4871 41.669 35.909 42.091C36.331 42.5129 36.9033 42.75 37.5 42.75C38.0967 42.75 38.669 42.5129 39.091 42.091C39.5129 41.669 39.75 41.0967 39.75 40.5V38.25C39.75 37.6533 39.5129 37.081 39.091 36.659C38.669 36.2371 38.0967 36 37.5 36ZM42 28.5H39.75V7.5C39.75 6.90326 39.5129 6.33097 39.091 5.90901C38.669 5.48705 38.0967 5.25 37.5 5.25C36.9033 5.25 36.331 5.48705 35.909 5.90901C35.4871 6.33097 35.25 6.90326 35.25 7.5V28.5H33C32.4033 28.5 31.831 28.7371 31.409 29.159C30.9871 29.581 30.75 30.1533 30.75 30.75C30.75 31.3467 30.9871 31.919 31.409 32.341C31.831 32.7629 32.4033 33 33 33H42C42.5967 33 43.169 32.7629 43.591 32.341C44.0129 31.919 44.25 31.3467 44.25 30.75C44.25 30.1533 44.0129 29.581 43.591 29.159C43.169 28.7371 42.5967 28.5 42 28.5ZM10.5 30C9.90326 30 9.33097 30.2371 8.90901 30.659C8.48705 31.081 8.25 31.6533 8.25 32.25V40.5C8.25 41.0967 8.48705 41.669 8.90901 42.091C9.33097 42.5129 9.90326 42.75 10.5 42.75C11.0967 42.75 11.669 42.5129 12.091 42.091C12.5129 41.669 12.75 41.0967 12.75 40.5V32.25C12.75 31.6533 12.5129 31.081 12.091 30.659C11.669 30.2371 11.0967 30 10.5 30ZM15 22.5H12.75V7.5C12.75 6.90326 12.5129 6.33097 12.091 5.90901C11.669 5.48705 11.0967 5.25 10.5 5.25C9.90326 5.25 9.33097 5.48705 8.90901 5.90901C8.48705 6.33097 8.25 6.90326 8.25 7.5V22.5H6C5.40326 22.5 4.83097 22.7371 4.40901 23.159C3.98705 23.581 3.75 24.1533 3.75 24.75C3.75 25.3467 3.98705 25.919 4.40901 26.341C4.83097 26.7629 5.40326 27 6 27H15C15.5967 27 16.169 26.7629 16.591 26.341C17.0129 25.919 17.25 25.3467 17.25 24.75C17.25 24.1533 17.0129 23.581 16.591 23.159C16.169 22.7371 15.5967 22.5 15 22.5ZM28.5 13.5H26.25V7.5C26.25 6.90326 26.0129 6.33097 25.591 5.90901C25.169 5.48705 24.5967 5.25 24 5.25C23.4033 5.25 22.831 5.48705 22.409 5.90901C21.9871 6.33097 21.75 6.90326 21.75 7.5V13.5H19.5C18.9033 13.5 18.331 13.7371 17.909 14.159C17.4871 14.581 17.25 15.1533 17.25 15.75C17.25 16.3467 17.4871 16.919 17.909 17.341C18.331 17.7629 18.9033 18 19.5 18H28.5C29.0967 18 29.669 17.7629 30.091 17.341C30.5129 16.919 30.75 16.3467 30.75 15.75C30.75 15.1533 30.5129 14.581 30.091 14.159C29.669 13.7371 29.0967 13.5 28.5 13.5Z" fill="black"/>
</svg>
