<svg width="48" height="48" viewBox="0 0 48 48" fill="none" xmlns="http://www.w3.org/2000/svg">
<path d="M24 4.5C20.1433 4.5 16.3731 5.64366 13.1664 7.78634C9.95963 9.92903 7.46027 12.9745 5.98436 16.5377C4.50845 20.1008 4.12228 24.0216 4.8747 27.8043C5.62711 31.5869 7.4843 35.0615 10.2114 37.7886C12.9386 40.5157 16.4131 42.3729 20.1957 43.1253C23.9784 43.8777 27.8992 43.4916 31.4623 42.0156C35.0255 40.5397 38.071 38.0404 40.2137 34.8336C42.3564 31.6269 43.5 27.8567 43.5 24C43.4941 18.8301 41.4377 13.8737 37.782 10.218C34.1263 6.56233 29.1699 4.50595 24 4.5ZM40.4288 22.5H32.9606C32.625 15.6544 29.9888 10.8131 27.8269 7.95C31.1836 8.75609 34.2039 10.5926 36.4643 13.2019C38.7246 15.8112 40.1115 19.0626 40.4306 22.5H40.4288ZM18.0431 25.5H29.9569C29.5238 33.3019 25.7888 38.0831 24 39.9375C22.2094 38.0812 18.4763 33.3 18.0431 25.5ZM18.0431 22.5C18.4763 14.6981 22.2113 9.91687 24 8.0625C25.7906 9.92438 29.5238 14.7056 29.9569 22.5H18.0431ZM27.8269 40.05C29.9888 37.1869 32.6194 32.3456 32.9606 25.5H40.4306C40.1115 28.9374 38.7246 32.1888 36.4643 34.7981C34.2039 37.4074 31.1836 39.2439 27.8269 40.05Z" fill="black"/>
</svg>
