<svg width="542" height="150" viewBox="0 0 542 150" fill="none" xmlns="http://www.w3.org/2000/svg">
<g clip-path="url(#clip0_4070_85696)">
<path d="M439.179 0L413.65 4.83059C413.65 4.83059 421.656 26.216 412.895 51.476C403.63 36.8333 386.611 25.9644 371.152 28.4301V4.83059H343.811V144.465H371.152V98.1718C376.842 100.335 383.086 101.392 389.531 100.889C391.646 100.738 400.055 99.5304 401.868 98.373C411.787 118.45 405.443 145.421 405.443 145.421L434.899 150L436.208 134.602H436.158C436.158 134.602 436.208 134.401 436.208 134.301C436.662 119.507 434.547 99.5807 426.893 79.3526C453.782 41.1104 439.179 0 439.179 0ZM375.08 72.5092C370.246 69.1379 367.476 59.4767 375.13 55.6021C384.294 51.0231 398.444 65.7665 401.465 76.5347C396.429 78.3462 380.316 76.1825 375.08 72.5092Z" fill="#F78520"/>
<path d="M140.938 4.57904V47.4506C212.742 -7.04457 220.295 102.097 208.965 150.05L181.775 145.471C184.846 127.004 187.918 82.9756 176.79 69.3895C160.626 49.6143 140.888 77.0379 140.888 91.882V145.471H113.294V4.57904H140.888H140.938Z" fill="#F78520"/>
<path d="M542 150L541.899 131.835L538.324 58.0677C538.123 54.7467 537.519 51.4257 536.209 48.3562C531.98 38.4938 524.578 36.1791 520.952 34.7199C504.588 28.0778 490.741 33.5625 474.678 37.6384L480.821 60.634C488.173 56.9104 489.532 56.3569 493.913 55.1493H494.064C502.624 52.7843 511.486 58.1684 513.097 66.9238C513.097 66.9742 513.097 67.0748 513.148 67.1251C478.656 72.2576 430.77 89.215 447.236 127.558C458.464 153.774 497.891 151.51 512.846 129.52C512.795 131.281 512.795 132.841 512.896 134.2L512.695 145.421L542 150ZM508.817 100.939C486.511 150.05 458.817 114.324 503.782 93.8443C506.551 92.5361 509.472 91.731 512.241 90.9259C511.486 94.2972 510.328 97.6182 508.817 100.939Z" fill="#F78520"/>
<path d="M107.453 10.6676V35.1728H70.6956V145.421H40.0306C41.6419 108.437 44.361 72.157 40.0306 35.1728L-0.050415 34.9715V10.6676H107.403H107.453Z" fill="#F78520"/>
<path d="M327.395 115.029C319.188 120.966 309.721 122.174 309.721 122.174C287.768 125.445 255.642 128.916 259.721 96.2597C271.554 99.631 281.574 101.141 290.084 101.141C331.877 101.141 335.401 65.364 323.871 48.5576C303.125 18.2657 251.161 39.4499 237.515 69.8927L218.633 64.9614L221.755 87.001L232.027 89.9195C231.473 94.1463 231.372 98.5743 231.624 103.153C234.293 146.931 295.874 155.133 328.453 142.955C330.316 142.251 329.51 142.603 330.165 142.251C330.215 142.251 331.575 141.647 331.625 141.597L338.423 138.225L327.395 115.029ZM282.48 61.4391C290.537 54.3945 304.938 49.1111 308.211 55.9041C309.117 57.7659 309.822 60.4328 306.751 64.7602C303.931 69.1379 294.062 75.0755 280.114 76.4341C275.582 76.887 273.014 76.887 267.979 76.4341C272.762 69.2889 275.582 67.4774 282.48 61.4391Z" fill="#F78520"/>
</g>
<defs>
<clipPath id="clip0_4070_85696">
<rect width="542" height="150" fill="white"/>
</clipPath>
</defs>
</svg>
