<svg width="54" height="54" viewBox="0 0 54 54" fill="none" xmlns="http://www.w3.org/2000/svg">
<g clip-path="url(#clip0_4070_84170)">
<rect width="54" height="54" rx="27" fill="black" fill-opacity="0.01"/>
<path d="M95.0186 -58C95.0186 -58 113.395 -6.42984 79.5566 41.542C89.1885 66.9165 91.8506 91.9122 91.2803 110.47C91.2803 110.596 91.2171 110.847 91.2168 110.849H91.2803L89.6328 130.163L52.5625 124.42C52.5625 124.42 60.5469 90.5866 48.0635 65.4014C45.7823 66.8531 35.1998 68.3682 32.5381 68.5576C24.427 69.1888 16.5688 67.8636 9.4082 65.1494V123.221H-25V-51.9404H9.4082V-22.3359C28.8621 -25.4289 50.2807 -11.7949 61.9404 6.57324C72.9664 -25.1134 62.8916 -51.9404 62.8916 -51.9404L95.0186 -58ZM29.0967 -6.25488C12.21 -6.2548 -1.47923 7.43461 -1.47949 24.3213C-1.47949 41.2082 12.2098 54.8984 29.0967 54.8984C45.9836 54.8984 59.6738 41.2082 59.6738 24.3213C59.6736 7.43456 45.9835 -6.25488 29.0967 -6.25488ZM14.415 11.749C25.9479 6.00539 43.7534 24.4991 47.5557 38.0068C41.2185 40.279 20.9417 37.5648 14.3516 32.957C8.26829 28.7279 4.78316 16.6093 14.415 11.749Z" fill="#5A5A5A"/>
</g>
<defs>
<clipPath id="clip0_4070_84170">
<rect width="54" height="54" rx="27" fill="white"/>
</clipPath>
</defs>
</svg>
