<svg width="48" height="48" viewBox="0 0 48 48" fill="none" xmlns="http://www.w3.org/2000/svg">
<path d="M43.5919 40.4081L34.6875 31.5C37.3573 28.0209 38.6038 23.6565 38.174 19.2921C37.7443 14.9278 35.6706 10.8903 32.3734 7.99872C29.0763 5.10713 24.8028 3.57796 20.4197 3.72141C16.0366 3.86486 11.8721 5.67018 8.77116 8.77116C5.67018 11.8721 3.86486 16.0366 3.72141 20.4197C3.57796 24.8028 5.10713 29.0763 7.99872 32.3734C10.8903 35.6706 14.9278 37.7443 19.2921 38.174C23.6565 38.6038 28.0209 37.3573 31.5 34.6875L40.4119 43.6012C40.6212 43.8105 40.8696 43.9766 41.1431 44.0898C41.4165 44.2031 41.7096 44.2614 42.0056 44.2614C42.3016 44.2614 42.5947 44.2031 42.8681 44.0898C43.1416 43.9766 43.3901 43.8105 43.5994 43.6012C43.8087 43.3919 43.9747 43.1435 44.0879 42.87C44.2012 42.5966 44.2595 42.3035 44.2595 42.0075C44.2595 41.7115 44.2012 41.4184 44.0879 41.145C43.9747 40.8715 43.8087 40.623 43.5994 40.4137L43.5919 40.4081ZM8.24999 21C8.24999 18.4783 8.99776 16.0132 10.3988 13.9165C11.7997 11.8197 13.791 10.1855 16.1208 9.22052C18.4505 8.25551 21.0141 8.00301 23.4874 8.49498C25.9606 8.98694 28.2325 10.2013 30.0156 11.9844C31.7987 13.7675 33.013 16.0393 33.505 18.5126C33.997 20.9858 33.7445 23.5494 32.7794 25.8792C31.8144 28.209 30.1802 30.2002 28.0835 31.6012C25.9868 33.0022 23.5217 33.75 21 33.75C17.6195 33.7465 14.3785 32.4021 11.9882 30.0118C9.59788 27.6214 8.25346 24.3804 8.24999 21Z" fill="black"/>
</svg>
