<svg width="48" height="48" viewBox="0 0 48 48" fill="none" xmlns="http://www.w3.org/2000/svg">
<path d="M23.25 32.8125C23.4767 32.9421 23.7333 33.0103 23.9944 33.0103C24.2555 33.0103 24.5121 32.9421 24.7388 32.8125C25.1981 32.5482 35.9888 26.25 35.9888 15.0094C35.8945 11.8918 34.5901 8.93347 32.352 6.76116C30.1139 4.58884 27.1179 3.37329 23.9989 3.37207C20.8799 3.37085 17.883 4.58406 15.6432 6.75463C13.4034 8.92519 12.0967 11.8825 12 15C12 26.25 22.7962 32.5388 23.25 32.8125ZM24 10.5C24.89 10.5 25.76 10.764 26.5001 11.2584C27.2401 11.7529 27.8169 12.4557 28.1575 13.278C28.4981 14.1002 28.5872 15.005 28.4135 15.8779C28.2399 16.7509 27.8113 17.5527 27.182 18.182C26.5526 18.8113 25.7508 19.2399 24.8779 19.4136C24.005 19.5872 23.1002 19.4981 22.2779 19.1575C21.4557 18.8169 20.7529 18.2401 20.2584 17.5001C19.7639 16.7601 19.5 15.89 19.5 15C19.5 13.8066 19.9741 12.662 20.818 11.8181C21.6619 10.9741 22.8065 10.5 24 10.5ZM45 34.5C45 40.3463 34.1794 43.5 24 43.5C13.8206 43.5 3 40.3463 3 34.5C3 31.7644 5.47875 29.3419 9.98063 27.6807C10.3498 27.5587 10.7519 27.5848 11.1022 27.7536C11.4525 27.9224 11.7236 28.2205 11.8583 28.5853C11.993 28.95 11.9808 29.3528 11.8243 29.7087C11.6678 30.0646 11.3792 30.3459 11.0194 30.4932C7.92375 31.6388 6 33.1725 6 34.5C6 37.005 12.8475 40.5 24 40.5C35.1525 40.5 42 37.005 42 34.5C42 33.1725 40.0762 31.6388 36.9806 30.495C36.6208 30.3477 36.3322 30.0665 36.1757 29.7106C36.0192 29.3546 36.007 28.9519 36.1417 28.5871C36.2764 28.2224 36.5475 27.9242 36.8978 27.7555C37.2481 27.5867 37.6502 27.5606 38.0194 27.6825C42.5213 29.3419 45 31.7644 45 34.5Z" fill="black"/>
</svg>
