<svg width="48" height="48" viewBox="0 0 48 48" fill="none" xmlns="http://www.w3.org/2000/svg">
<path d="M43.1512 4.84875C42.68 4.37734 42.0916 4.04006 41.4466 3.87165C40.8016 3.70324 40.1235 3.7098 39.4819 3.89063L39.4406 3.90375L3.45749 14.8125C2.72772 15.0242 2.07946 15.4525 1.59858 16.0409C1.11771 16.6292 0.826908 17.3497 0.764698 18.1071C0.702487 18.8644 0.871802 19.6227 1.25022 20.2816C1.62863 20.9405 2.19829 21.469 2.88374 21.7969L18.5625 29.4375L26.1956 45.1219C26.4966 45.762 26.9741 46.3028 27.572 46.6808C28.1699 47.0588 28.8633 47.2582 29.5706 47.2556C29.6775 47.2556 29.7862 47.2556 29.895 47.2425C30.6543 47.1841 31.3774 46.8937 31.9663 46.4108C32.5552 45.9279 32.9815 45.2757 33.1875 44.5425L44.0962 8.55938C44.1017 8.54601 44.1061 8.53221 44.1094 8.51813C44.2902 7.87654 44.2968 7.19835 44.1283 6.5534C43.9599 5.90844 43.6227 5.32003 43.1512 4.84875ZM29.4206 41.4506L22.9762 28.2056L31.6012 19.59C31.8105 19.3807 31.9766 19.1322 32.0898 18.8588C32.2031 18.5853 32.2614 18.2922 32.2614 17.9963C32.2614 17.7003 32.2031 17.4072 32.0898 17.1337C31.9766 16.8603 31.8105 16.6118 31.6012 16.4025C31.3919 16.1932 31.1435 16.0272 30.87 15.9139C30.5966 15.8007 30.3035 15.7424 30.0075 15.7424C29.7115 15.7424 29.4184 15.8007 29.145 15.9139C28.8715 16.0272 28.623 16.1932 28.4137 16.4025L19.7887 25.0275L6.54937 18.5794L39.375 8.625L29.4206 41.4506Z" fill="black"/>
</svg>
