<svg width="48" height="48" viewBox="0 0 48 48" fill="none" xmlns="http://www.w3.org/2000/svg">
<path d="M42.75 24C42.75 24.5967 42.5129 25.169 42.091 25.591C41.669 26.0129 41.0967 26.25 40.5 26.25H26.25V40.5C26.25 41.0967 26.0129 41.669 25.591 42.091C25.169 42.5129 24.5967 42.75 24 42.75C23.4033 42.75 22.831 42.5129 22.409 42.091C21.9871 41.669 21.75 41.0967 21.75 40.5V26.25H7.5C6.90326 26.25 6.33097 26.0129 5.90901 25.591C5.48705 25.169 5.25 24.5967 5.25 24C5.25 23.4033 5.48705 22.831 5.90901 22.409C6.33097 21.9871 6.90326 21.75 7.5 21.75H21.75V7.5C21.75 6.90326 21.9871 6.33097 22.409 5.90901C22.831 5.48705 23.4033 5.25 24 5.25C24.5967 5.25 25.169 5.48705 25.591 5.90901C26.0129 6.33097 26.25 6.90326 26.25 7.5V21.75H40.5C41.0967 21.75 41.669 21.9871 42.091 22.409C42.5129 22.831 42.75 23.4033 42.75 24Z" fill="black"/>
</svg>
