<svg width="48" height="48" viewBox="0 0 48 48" fill="none" xmlns="http://www.w3.org/2000/svg">
<path d="M24 4.5C20.1433 4.5 16.3731 5.64366 13.1664 7.78634C9.95963 9.92903 7.46027 12.9745 5.98436 16.5377C4.50845 20.1008 4.12228 24.0216 4.8747 27.8043C5.62711 31.5869 7.4843 35.0615 10.2114 37.7886C12.9386 40.5157 16.4131 42.3729 20.1957 43.1253C23.9784 43.8777 27.8992 43.4916 31.4623 42.0156C35.0255 40.5397 38.071 38.0404 40.2137 34.8336C42.3564 31.6269 43.5 27.8567 43.5 24C43.4945 18.83 41.4383 13.8732 37.7826 10.2174C34.1268 6.56167 29.1701 4.50546 24 4.5ZM24 36C23.555 36 23.12 35.868 22.75 35.6208C22.38 35.3736 22.0916 35.0222 21.9213 34.611C21.751 34.1999 21.7064 33.7475 21.7932 33.311C21.8801 32.8746 22.0944 32.4737 22.409 32.159C22.7237 31.8443 23.1246 31.63 23.5611 31.5432C23.9975 31.4564 24.4499 31.501 24.861 31.6713C25.2722 31.8416 25.6236 32.13 25.8708 32.5C26.118 32.87 26.25 33.305 26.25 33.75C26.25 34.3467 26.013 34.919 25.591 35.341C25.169 35.7629 24.5967 36 24 36ZM25.5 26.865V27C25.5 27.3978 25.342 27.7794 25.0607 28.0607C24.7794 28.342 24.3978 28.5 24 28.5C23.6022 28.5 23.2207 28.342 22.9393 28.0607C22.658 27.7794 22.5 27.3978 22.5 27V25.5C22.5 25.1022 22.658 24.7206 22.9393 24.4393C23.2207 24.158 23.6022 24 24 24C26.4806 24 28.5 22.3125 28.5 20.25C28.5 18.1875 26.4806 16.5 24 16.5C21.5194 16.5 19.5 18.1875 19.5 20.25V21C19.5 21.3978 19.342 21.7794 19.0607 22.0607C18.7794 22.342 18.3978 22.5 18 22.5C17.6022 22.5 17.2207 22.342 16.9393 22.0607C16.658 21.7794 16.5 21.3978 16.5 21V20.25C16.5 16.5281 19.8638 13.5 24 13.5C28.1363 13.5 31.5 16.5281 31.5 20.25C31.5 23.5087 28.92 26.2369 25.5 26.865Z" fill="black"/>
</svg>
