<svg width="48" height="48" viewBox="0 0 48 48" fill="none" xmlns="http://www.w3.org/2000/svg">
<path d="M43.5 15V22.5C43.5 22.8978 43.342 23.2794 43.0607 23.5607C42.7794 23.842 42.3978 24 42 24C38.8665 24.0073 35.7781 23.2538 33 21.8044V29.25C33 33.0293 31.4987 36.6539 28.8263 39.3263C26.1539 41.9987 22.5293 43.5 18.75 43.5C14.9707 43.5 11.3461 41.9987 8.67373 39.3263C6.00133 36.6539 4.5 33.0293 4.5 29.25C4.5 22.3312 9.54562 16.215 16.2375 15.0225C16.4534 14.9841 16.675 14.9936 16.8869 15.0501C17.0987 15.1067 17.2956 15.209 17.4636 15.3498C17.6317 15.4907 17.7668 15.6667 17.8594 15.8654C17.9521 16.0641 18.0001 16.2807 18 16.5V24.5044C18.0001 24.7883 17.9196 25.0663 17.7679 25.3063C17.6163 25.5463 17.3996 25.7383 17.1431 25.86C16.5368 26.1475 16.0188 26.5925 15.643 27.1485C15.2673 27.7044 15.0476 28.351 15.0069 29.0208C14.9662 29.6906 15.106 30.3591 15.4116 30.9565C15.7173 31.5538 16.1777 32.0582 16.7447 32.4171C17.3117 32.7759 17.9646 32.976 18.6354 32.9965C19.3061 33.017 19.97 32.8572 20.5579 32.5337C21.1458 32.2102 21.6361 31.7348 21.9777 31.1573C22.3193 30.5797 22.4997 29.921 22.5 29.25V4.5C22.5 4.10218 22.658 3.72064 22.9393 3.43934C23.2206 3.15804 23.6022 3 24 3H31.5C31.8978 3 32.2794 3.15804 32.5607 3.43934C32.842 3.72064 33 4.10218 33 4.5C33.0025 6.88619 33.9515 9.17393 35.6388 10.8612C37.3261 12.5485 39.6138 13.4975 42 13.5C42.3978 13.5 42.7794 13.658 43.0607 13.9393C43.342 14.2206 43.5 14.6022 43.5 15Z" fill="black"/>
</svg>
