<svg width="48" height="48" viewBox="0 0 48 48" fill="none" xmlns="http://www.w3.org/2000/svg">
<path d="M40.5 9H33.75V6.75C33.75 5.35761 33.1969 4.02226 32.2123 3.03769C31.2277 2.05312 29.8924 1.5 28.5 1.5H19.5C18.1076 1.5 16.7723 2.05312 15.7877 3.03769C14.8031 4.02226 14.25 5.35761 14.25 6.75V9H7.5C6.90326 9 6.33097 9.23705 5.90901 9.65901C5.48705 10.081 5.25 10.6533 5.25 11.25C5.25 11.8467 5.48705 12.419 5.90901 12.841C6.33097 13.2629 6.90326 13.5 7.5 13.5H8.25V39C8.25 39.9946 8.64509 40.9484 9.34835 41.6516C10.0516 42.3549 11.0054 42.75 12 42.75H36C36.9946 42.75 37.9484 42.3549 38.6516 41.6516C39.3549 40.9484 39.75 39.9946 39.75 39V13.5H40.5C41.0967 13.5 41.669 13.2629 42.091 12.841C42.5129 12.419 42.75 11.8467 42.75 11.25C42.75 10.6533 42.5129 10.081 42.091 9.65901C41.669 9.23705 41.0967 9 40.5 9ZM18.75 6.75C18.75 6.55109 18.829 6.36032 18.9697 6.21967C19.1103 6.07902 19.3011 6 19.5 6H28.5C28.6989 6 28.8897 6.07902 29.0303 6.21967C29.171 6.36032 29.25 6.55109 29.25 6.75V9H18.75V6.75ZM35.25 38.25H12.75V13.5H35.25V38.25ZM21.75 19.5V31.5C21.75 32.0967 21.5129 32.669 21.091 33.091C20.669 33.5129 20.0967 33.75 19.5 33.75C18.9033 33.75 18.331 33.5129 17.909 33.091C17.4871 32.669 17.25 32.0967 17.25 31.5V19.5C17.25 18.9033 17.4871 18.331 17.909 17.909C18.331 17.4871 18.9033 17.25 19.5 17.25C20.0967 17.25 20.669 17.4871 21.091 17.909C21.5129 18.331 21.75 18.9033 21.75 19.5ZM30.75 19.5V31.5C30.75 32.0967 30.5129 32.669 30.091 33.091C29.669 33.5129 29.0967 33.75 28.5 33.75C27.9033 33.75 27.331 33.5129 26.909 33.091C26.4871 32.669 26.25 32.0967 26.25 31.5V19.5C26.25 18.9033 26.4871 18.331 26.909 17.909C27.331 17.4871 27.9033 17.25 28.5 17.25C29.0967 17.25 29.669 17.4871 30.091 17.909C30.5129 18.331 30.75 18.9033 30.75 19.5Z" fill="black"/>
</svg>
