<svg width="48" height="48" viewBox="0 0 48 48" fill="none" xmlns="http://www.w3.org/2000/svg">
<path d="M43.9463 39.375C41.3756 34.8632 37.3614 31.3477 32.55 29.3944C34.9427 27.5999 36.7101 25.0981 37.6018 22.2433C38.4936 19.3885 38.4645 16.3255 37.5188 13.4881C36.573 10.6508 34.7584 8.18295 32.3321 6.43418C29.9059 4.68542 26.9908 3.74438 24 3.74438C21.0092 3.74438 18.0942 4.68542 15.6679 6.43418C13.2416 8.18295 11.4271 10.6508 10.4813 13.4881C9.5355 16.3255 9.50644 19.3885 10.3982 22.2433C11.29 25.0981 13.0574 27.5999 15.45 29.3944C10.6386 31.3477 6.62448 34.8632 4.05377 39.375C3.89448 39.6311 3.78832 39.9167 3.74158 40.2147C3.69485 40.5126 3.70851 40.817 3.78175 41.1096C3.85499 41.4022 3.9863 41.6771 4.1679 41.9179C4.34949 42.1587 4.57766 42.3606 4.83882 42.5115C5.09999 42.6624 5.38883 42.7592 5.68817 42.7962C5.98751 42.8333 6.29124 42.8097 6.58131 42.727C6.87137 42.6443 7.14185 42.5042 7.37666 42.3148C7.61147 42.1255 7.80581 41.8909 7.94815 41.625C11.3456 35.7525 17.3456 32.25 24 32.25C30.6544 32.25 36.6544 35.7544 40.0519 41.625C40.3604 42.121 40.8496 42.4776 41.4162 42.6194C41.9828 42.7612 42.5824 42.6772 43.0881 42.385C43.5939 42.0928 43.9662 41.6154 44.1263 41.0536C44.2865 40.4919 44.2219 39.89 43.9463 39.375ZM14.25 18C14.25 16.0716 14.8219 14.1866 15.8932 12.5832C16.9645 10.9798 18.4873 9.73014 20.2689 8.99218C22.0504 8.25423 24.0108 8.06115 25.9022 8.43735C27.7935 8.81356 29.5308 9.74216 30.8943 11.1057C32.2579 12.4693 33.1865 14.2066 33.5627 16.0979C33.9389 17.9892 33.7458 19.9496 33.0078 21.7312C32.2699 23.5128 31.0202 25.0355 29.4168 26.1068C27.8135 27.1782 25.9284 27.75 24 27.75C21.4151 27.747 18.9369 26.7188 17.109 24.891C15.2812 23.0632 14.253 20.585 14.25 18Z" fill="black"/>
</svg>
