<svg width="48" height="48" viewBox="0 0 48 48" fill="none" xmlns="http://www.w3.org/2000/svg">
<path d="M22.5 24C22.5 24.5933 22.3241 25.1733 21.9944 25.6667C21.6648 26.16 21.1962 26.5445 20.6481 26.7716C20.0999 26.9987 19.4967 27.0581 18.9147 26.9423C18.3328 26.8266 17.7982 26.5408 17.3787 26.1213C16.9591 25.7017 16.6734 25.1672 16.5577 24.5852C16.4419 24.0033 16.5013 23.4001 16.7284 22.8519C16.9554 22.3037 17.3399 21.8352 17.8333 21.5055C18.3266 21.1759 18.9067 21 19.5 21C20.2957 21 21.0587 21.316 21.6213 21.8786C22.1839 22.4412 22.5 23.2043 22.5 24ZM28.5 21C27.9067 21 27.3266 21.1759 26.8333 21.5055C26.3399 21.8352 25.9554 22.3037 25.7284 22.8519C25.5013 23.4001 25.4419 24.0033 25.5577 24.5852C25.6734 25.1672 25.9591 25.7017 26.3787 26.1213C26.7982 26.5408 27.3328 26.8266 27.9147 26.9423C28.4967 27.0581 29.0999 26.9987 29.6481 26.7716C30.1962 26.5445 30.6648 26.16 30.9944 25.6667C31.3241 25.1733 31.5 24.5933 31.5 24C31.5 23.2043 31.1839 22.4412 30.6213 21.8786C30.0587 21.316 29.2957 21 28.5 21ZM44.25 24C44.2507 27.4686 43.3605 30.8794 41.6645 33.9052C39.9686 36.931 37.5238 39.4704 34.5646 41.28C31.6053 43.0897 28.2309 44.1088 24.7647 44.2398C21.2985 44.3708 17.8567 43.6092 14.7694 42.0281L8.68876 44.0625C8.02681 44.2855 7.31571 44.3193 6.6356 44.16C5.95549 44.0006 5.33341 43.6544 4.83947 43.1605C4.34553 42.6666 3.99938 42.0445 3.84001 41.3644C3.68065 40.6843 3.71442 39.9732 3.93751 39.3112L5.96438 33.2306C4.57255 30.5043 3.81691 27.4979 3.75426 24.4375C3.69162 21.3771 4.3236 18.3423 5.6027 15.5613C6.8818 12.7803 8.77473 10.3255 11.1392 8.38144C13.5036 6.43736 16.278 5.0546 19.2538 4.33715C22.2295 3.61969 25.3292 3.5862 28.3198 4.23919C31.3104 4.89219 34.114 6.21467 36.5199 8.10721C38.9258 9.99975 40.8713 12.4131 42.2102 15.1658C43.5491 17.9185 44.2465 20.9389 44.25 24ZM39.75 24C39.7491 21.5841 39.1924 19.2008 38.1231 17.0345C37.0538 14.8682 35.5004 12.9769 33.5832 11.507C31.666 10.037 29.4364 9.02783 27.0668 8.55743C24.6972 8.08703 22.2511 8.16804 19.9178 8.7942C17.5845 9.42036 15.4265 10.5749 13.6108 12.1685C11.795 13.7621 10.3702 15.752 9.4466 17.9843C8.52294 20.2166 8.1252 22.6315 8.28413 25.0421C8.44306 27.4527 9.1544 29.7945 10.3631 31.8862C10.5229 32.162 10.6222 32.4686 10.6545 32.7857C10.6869 33.1028 10.6514 33.4232 10.5506 33.7256L8.68876 39.3112L14.2744 37.4493C14.5042 37.3728 14.7447 37.3336 14.9869 37.3331C15.382 37.3338 15.7701 37.4385 16.1119 37.6368C18.5063 39.0223 21.2234 39.7527 23.9898 39.7545C26.7562 39.7563 29.4742 39.0294 31.8704 37.6471C34.2666 36.2647 36.2565 34.2756 37.6397 31.8798C39.023 29.4841 39.7508 26.7663 39.75 24Z" fill="black"/>
</svg>
