<svg width="48" height="48" viewBox="0 0 48 48" fill="none" xmlns="http://www.w3.org/2000/svg">
<path d="M43.1531 13.2263L34.7738 4.8488C34.0705 4.14579 33.1169 3.75085 32.1225 3.75085C31.1282 3.75085 30.1745 4.14579 29.4713 4.8488L6.34876 27.9694C5.99935 28.3167 5.72232 28.7299 5.53371 29.185C5.34511 29.64 5.24868 30.128 5.25001 30.6207V39.0001C5.25001 39.9946 5.6451 40.9484 6.34836 41.6517C7.05162 42.355 8.00545 42.7501 9.00001 42.7501H40.5C41.0968 42.7501 41.669 42.513 42.091 42.091C42.513 41.6691 42.75 41.0968 42.75 40.5001C42.75 39.9033 42.513 39.331 42.091 38.9091C41.669 38.4871 41.0968 38.2501 40.5 38.2501H23.4375L43.1531 18.5307C43.5015 18.1824 43.7779 17.769 43.9664 17.3139C44.155 16.8588 44.252 16.3711 44.252 15.8785C44.252 15.3859 44.155 14.8981 43.9664 14.4431C43.7779 13.988 43.5015 13.5745 43.1531 13.2263ZM17.0625 38.2501H9.75001V30.9376L25.5 15.1876L32.8125 22.5001L17.0625 38.2501ZM36 19.3126L28.6875 12.0001L32.1263 8.5613L39.4388 15.8738L36 19.3126Z" fill="black"/>
</svg>
