<svg width="120" height="115" viewBox="0 0 120 115" fill="none" xmlns="http://www.w3.org/2000/svg">
<path d="M108.763 81.1767C100.555 87.1143 91.0886 88.3219 91.0886 88.3219C69.1347 91.5926 37.0095 95.0646 41.0881 62.4078C52.9211 65.7791 62.9413 67.2887 71.451 67.2887C113.244 67.2887 116.769 31.5121 105.238 14.7057C84.4924 -15.5862 32.5281 5.59801 18.8824 36.0408L0 31.1096L3.1219 53.1492L13.3939 56.0677C12.84 60.2944 12.7393 64.7225 12.9911 69.3015C15.6598 113.079 77.2416 121.281 109.82 109.104C111.683 108.399 110.877 108.751 111.532 108.399C111.582 108.399 112.942 107.795 112.992 107.745L119.79 104.374L108.763 81.1767ZM63.8476 27.5873C71.9041 20.5427 86.3051 15.2592 89.578 22.0522C90.4844 23.914 91.1893 26.5809 88.1178 30.9083C85.298 35.286 75.4289 41.2236 61.4811 42.5822C56.9493 43.0351 54.3813 43.0351 49.346 42.5822C54.1295 35.437 56.9493 33.6255 63.8476 27.5873Z" fill="#F78520"/>
</svg>
