<svg width="387" height="207" viewBox="0 0 387 207" fill="none" xmlns="http://www.w3.org/2000/svg">
<path d="M439.092 1.0181L441.449 84.7649C441.449 84.7649 368.442 74.3203 294.769 119.366C347.365 138.433 393.399 184.532 396.276 234.925L470.75 218.623L489.602 304.742L48.9499 401.199L30.0986 315.08L176.189 283.101C165.437 266.674 157.798 247.738 154.942 227.09C153.96 220.324 151.974 193.004 154.376 186.495C84.1783 169.12 3.43934 207.734 3.43934 207.734L-31.3202 118.117L16.3679 103.357L16.4026 103.515C16.4026 103.515 17.0031 103.218 17.3207 103.148C63.6935 91.5016 128.034 84.398 197.146 94.5319C299.29 -16.5773 439.092 1.0181 439.092 1.0181ZM254.465 253.003C268.437 265.9 300.835 267.949 307.785 241.166C315.917 209.137 259.635 174.755 223.57 172.678C221.325 189.789 239.263 239.046 254.465 253.003Z" fill="#F78520"/>
</svg>
