<svg width="298" height="161" viewBox="0 0 298 161" fill="none" xmlns="http://www.w3.org/2000/svg">
<path d="M246.425 299.299C215.752 302.212 189.106 290.768 189.106 290.768C126.582 265.462 37.126 224.982 98.352 145.57C124.104 172.685 147.993 192.115 170.266 205.252C279.652 269.768 344.257 181.314 340.093 119.405C332.685 7.87888 163.886 -16.7412 81.0471 42.091L39.2591 2.6319e-05L13.3141 62.6623L35.6816 86.1788C27.6891 96.417 20.5711 107.883 14.142 120.289C-46.6379 239.302 101.845 355.893 205.963 374.226C211.93 375.253 209.276 374.933 211.534 375.02C211.666 375.097 216.159 375.611 216.369 375.557L239.379 377.202L246.425 299.299ZM211.821 89.3181C243.812 83.2663 289.683 91.6308 287.734 114.512C287.224 120.797 284.941 128.885 270.203 135.5C256.047 142.637 221.025 142.985 182.416 125.019C169.854 119.212 163.132 115.248 150.654 106.286C174.235 94.9177 184.419 94.5163 211.821 89.3181Z" fill="#81013A"/>
</svg>
