<svg width="38" height="38" viewBox="0 0 38 38" fill="none" xmlns="http://www.w3.org/2000/svg">
<path d="M8.30517e-07 19C6.66256e-07 15.2422 1.11433 11.5687 3.20208 8.44417C5.28982 5.31964 8.25722 2.88436 11.729 1.4463C15.2008 0.00823174 19.0211 -0.368032 22.7067 0.365087C26.3924 1.09821 29.7778 2.90778 32.435 5.56498C35.0922 8.22217 36.9018 11.6077 37.6349 15.2933C38.368 18.9789 37.9918 22.7992 36.5537 26.271C35.1156 29.7428 32.6804 32.7102 29.5558 34.7979C26.4313 36.8857 22.7578 38 19 38C13.9625 37.9947 9.13288 35.9912 5.57085 32.4292C2.00881 28.8671 0.00532072 24.0375 8.30517e-07 19ZM22.9571 27.3417C23.093 27.206 23.2008 27.0448 23.2744 26.8674C23.3479 26.6899 23.3858 26.4998 23.3858 26.3077C23.3858 26.1156 23.3479 25.9254 23.2744 25.748C23.2008 25.5706 23.093 25.4094 22.9571 25.2737L16.6816 19L22.9571 12.7264C23.0929 12.5906 23.2006 12.4294 23.2741 12.2519C23.3476 12.0745 23.3854 11.8844 23.3854 11.6923C23.3854 11.5003 23.3476 11.3101 23.2741 11.1327C23.2006 10.9553 23.0929 10.7941 22.9571 10.6583C22.8213 10.5225 22.6601 10.4148 22.4827 10.3413C22.3053 10.2678 22.1151 10.23 21.9231 10.23C21.731 10.23 21.5409 10.2678 21.3635 10.3413C21.186 10.4148 21.0248 10.5225 20.889 10.6583L13.5813 17.966C13.4455 18.1017 13.3377 18.2629 13.2641 18.4403C13.1906 18.6177 13.1527 18.8079 13.1527 19C13.1527 19.1921 13.1906 19.3823 13.2641 19.5597C13.3377 19.7371 13.4455 19.8983 13.5813 20.034L20.889 27.3417C21.0248 27.4776 21.186 27.5854 21.3634 27.659C21.5408 27.7325 21.731 27.7704 21.9231 27.7704C22.1151 27.7704 22.3053 27.7325 22.4828 27.659C22.6602 27.5854 22.8214 27.4776 22.9571 27.3417Z" fill="#FF83A5"/>
</svg>
