<svg width="99" height="119" viewBox="0 0 99 119" fill="none" xmlns="http://www.w3.org/2000/svg">
<path d="M98.1094 118.382L98.0087 100.217L94.4336 26.4494C94.2322 23.1283 93.628 19.8073 92.3188 16.7379C88.0891 6.8754 80.6872 4.56074 77.0618 3.1015C60.6971 -3.54057 46.85 1.94417 30.7874 6.01998L36.9304 29.0156C44.282 25.292 45.6415 24.7385 50.0222 23.5309H50.1733C58.7333 21.1659 67.5955 26.55 69.2068 35.3055C69.2068 35.3558 69.2068 35.4564 69.2571 35.5067C34.7653 40.6392 -13.1205 57.5966 3.34498 95.9395C14.5737 122.156 54.0001 119.891 68.955 97.9019C68.9046 99.6631 68.9046 101.223 69.0053 102.582L68.8039 113.803L98.1094 118.382ZM64.9268 69.3209C42.6204 118.432 14.9262 82.7057 59.8915 62.226C62.6609 60.9177 65.5813 60.1126 68.3508 59.3075C67.5955 62.6788 66.4373 65.9999 64.9268 69.3209Z" fill="#F78520"/>
</svg>
