<svg width="100" height="150" viewBox="0 0 100 150" fill="none" xmlns="http://www.w3.org/2000/svg">
<path d="M95.3687 0L69.8397 4.83059C69.8397 4.83059 77.8458 26.216 69.0844 51.476C59.8194 36.8333 42.8001 25.9644 27.3417 28.4301V4.83059H0V144.465H27.3417V98.1718C33.0316 100.335 39.2754 101.392 45.7206 100.889C47.8354 100.738 56.2443 99.5304 58.057 98.373C67.9766 118.45 61.6321 145.421 61.6321 145.421L91.0887 150L92.3978 134.602H92.3475C92.3475 134.602 92.3978 134.401 92.3978 134.301C92.851 119.507 90.7362 99.5807 83.0825 79.3526C109.971 41.1104 95.3687 0 95.3687 0ZM31.2692 72.5092C26.4353 69.1379 23.6659 59.4767 31.3196 55.6021C40.4838 51.0231 54.6331 65.7665 57.6542 76.5347C52.6189 78.3462 36.5059 76.1825 31.2692 72.5092Z" fill="#F78520"/>
</svg>
