<svg width="48" height="48" viewBox="0 0 48 48" fill="none" xmlns="http://www.w3.org/2000/svg">
<path d="M40.3125 41.2219C40.1833 41.4571 39.9934 41.6534 39.7626 41.7903C39.5317 41.9272 39.2684 41.9996 39 42H30C29.7475 41.9999 29.4992 41.9361 29.278 41.8145C29.0567 41.6929 28.8697 41.5175 28.7344 41.3044L21.1425 29.3738L10.11 41.5088C9.84105 41.7977 9.46907 41.9689 9.07471 41.9854C8.68034 42.0019 8.29538 41.8622 8.00327 41.5968C7.71116 41.3313 7.53546 40.9614 7.51426 40.5673C7.49305 40.1731 7.62806 39.7865 7.89 39.4912L19.4719 26.7412L7.73437 8.30625C7.58981 8.07946 7.50889 7.81797 7.50007 7.54916C7.49126 7.28036 7.55488 7.01413 7.68427 6.77835C7.81366 6.54258 8.00406 6.34592 8.23554 6.20899C8.46701 6.07205 8.73105 5.99987 9 6H18C18.2524 6.00008 18.5008 6.06387 18.722 6.18547C18.9433 6.30707 19.1302 6.48254 19.2656 6.69563L26.8575 18.6262L37.89 6.49125C38.1589 6.20235 38.5309 6.03109 38.9253 6.01462C39.3197 5.99814 39.7046 6.13777 39.9967 6.40323C40.2888 6.66869 40.4645 7.03859 40.4857 7.43273C40.5069 7.82687 40.3719 8.21348 40.11 8.50875L28.5281 21.2494L40.2656 39.6956C40.4094 39.9225 40.4896 40.1839 40.4978 40.4523C40.5061 40.7208 40.4421 40.9866 40.3125 41.2219Z" fill="black"/>
</svg>
